<!-- github.svg -->
<svg xmlns="http://www.w3.org/2000/svg" fill="#72acf4" viewBox="0 0 24 24">
  <path d="M12 0C5.37 0 0 5.37 0 12c0 5.3 3.438 9.8 8.205 11.387.6.113.82-.262.82-.58 0-.285-.01-1.04-.015-2.04-3.338.726-4.042-1.61-4.042-1.61-.546-1.39-1.333-1.76-1.333-1.76-1.09-.745.082-.73.082-.73 1.205.084 1.84 1.236 1.84 1.236 1.07 1.835 2.805 1.305 3.49.998.107-.776.418-1.305.76-1.605-2.665-.3-5.466-1.335-5.466-5.93 0-1.31.465-2.38 1.235-3.22-.135-.3-.54-1.515.105-3.16 0 0 1.005-.32 3.3 1.23a11.47 11.47 0 0 1 3-.405c1.02.005 2.045.14 3 .405 2.28-1.55 3.285-1.23 3.285-1.23.645 1.645.24 2.86.12 3.16.765.84 1.23 1.91 1.23 3.22 0 4.61-2.805 5.625-5.475 5.92.435.375.825 1.1.825 2.22 0 1.605-.015 2.9-.015 3.3 0 .32.21.7.825.58C20.565 21.795 24 17.29 24 12c0-6.63-5.37-12-12-12z"></path>
</svg>
